<svg xmlns="http://www.w3.org/2000/svg" viewBox="0 0 1600 1000" width="1600" height="1000" preserveAspectRatio="xMidYMid slice">
<rect width="1600" height="1000" fill="#94D3EC"/>
<g fill="#FFFFFF"><circle cx="141.4" cy="254.6" r="43.7"/><circle cx="182.8" cy="224.7" r="52.9"/><circle cx="233.4" cy="217.8" r="57.5"/><circle cx="279.4" cy="236.2" r="46.0"/><circle cx="311.6" cy="256.9" r="36.8"/><circle cx="215.0" cy="259.2" r="59.8"/><rect x="127.6" y="250.0" width="197.8" height="50.6" rx="23.0"/></g>
<g fill="#FFFFFF"><circle cx="1273.6" cy="215.4" r="51.3"/><circle cx="1322.2" cy="180.3" r="62.1"/><circle cx="1381.6" cy="172.2" r="67.5"/><circle cx="1435.6" cy="193.8" r="54.0"/><circle cx="1473.4" cy="218.1" r="43.2"/><circle cx="1360.0" cy="220.8" r="70.2"/><rect x="1257.4" y="210.0" width="232.2" height="59.4" rx="27.0"/></g>
<g fill="#FEFBC7"><circle cx="1369.2" cy="473.8" r="36.1"/><circle cx="1403.4" cy="449.1" r="43.7"/><circle cx="1445.2" cy="443.4" r="47.5"/><circle cx="1483.2" cy="458.6" r="38.0"/><circle cx="1509.8" cy="475.7" r="30.4"/><circle cx="1430.0" cy="477.6" r="49.4"/><rect x="1357.8" y="470.0" width="163.4" height="41.8" rx="19.0"/></g>
<g fill="#FEFBC7"><circle cx="86.0" cy="564.0" r="38.0"/><circle cx="122.0" cy="538.0" r="46.0"/><circle cx="166.0" cy="532.0" r="50.0"/><circle cx="206.0" cy="548.0" r="40.0"/><circle cx="234.0" cy="566.0" r="32.0"/><circle cx="150.0" cy="568.0" r="52.0"/><rect x="74.0" y="560.0" width="172.0" height="44.0" rx="20.0"/></g>
<g fill="#FFFFFF"><circle cx="170.0" cy="835.0" r="47.5"/><circle cx="215.0" cy="802.5" r="57.5"/><circle cx="270.0" cy="795.0" r="62.5"/><circle cx="320.0" cy="815.0" r="50.0"/><circle cx="355.0" cy="837.5" r="40.0"/><circle cx="250.0" cy="840.0" r="65.0"/><rect x="155.0" y="830.0" width="215.0" height="55.0" rx="25.0"/></g>
<g fill="#FFFFFF"><circle cx="1256.4" cy="804.6" r="43.7"/><circle cx="1297.8" cy="774.7" r="52.9"/><circle cx="1348.4" cy="767.8" r="57.5"/><circle cx="1394.4" cy="786.2" r="46.0"/><circle cx="1426.6" cy="806.9" r="36.8"/><circle cx="1330.0" cy="809.2" r="59.8"/><rect x="1242.6" y="800.0" width="197.8" height="50.6" rx="23.0"/></g>
<g fill="#FEFBC7"><circle cx="732.8" cy="909.2" r="39.9"/><circle cx="770.6" cy="881.9" r="48.3"/><circle cx="816.8" cy="875.6" r="52.5"/><circle cx="858.8" cy="892.4" r="42.0"/><circle cx="888.2" cy="911.3" r="33.6"/><circle cx="800.0" cy="913.4" r="54.6"/><rect x="720.2" y="905.0" width="180.6" height="46.2" rx="21.0"/></g>
<path d="M-20.0,70.0 Q800.0,190.0 1620.0,70.0" fill="none" stroke="#2F3E46" stroke-width="4" stroke-linecap="round"/><polygon points="-20.0,70.0 43.1,78.9 11.5,148.4" fill="#E14434"/><polygon points="43.1,78.9 106.2,87.0 74.6,157.0" fill="#FF9666"/><polygon points="106.2,87.0 169.2,94.5 137.7,164.8" fill="#FBE392"/><polygon points="169.2,94.5 232.3,101.2 200.8,171.9" fill="#88C999"/><polygon points="232.3,101.2 295.4,107.3 263.8,178.3" fill="#43927B"/><polygon points="295.4,107.3 358.5,112.6 326.9,183.9" fill="#5EABD6"/><polygon points="358.5,112.6 421.5,117.2 390.0,188.9" fill="#B8336A"/><polygon points="421.5,117.2 484.6,121.1 453.1,193.2" fill="#DDA0DD"/><polygon points="484.6,121.1 547.7,124.3 516.2,196.7" fill="#FFB4B4"/><polygon points="547.7,124.3 610.8,126.8 579.2,199.6" fill="#E14434"/><polygon points="610.8,126.8 673.8,128.6 642.3,201.7" fill="#FF9666"/><polygon points="673.8,128.6 736.9,129.6 705.4,203.1" fill="#FBE392"/><polygon points="736.9,129.6 800.0,130.0 768.5,203.8" fill="#88C999"/><polygon points="800.0,130.0 863.1,129.6 831.5,203.8" fill="#43927B"/><polygon points="863.1,129.6 926.2,128.6 894.6,203.1" fill="#5EABD6"/><polygon points="926.2,128.6 989.2,126.8 957.7,201.7" fill="#B8336A"/><polygon points="989.2,126.8 1052.3,124.3 1020.8,199.6" fill="#DDA0DD"/><polygon points="1052.3,124.3 1115.4,121.1 1083.8,196.7" fill="#FFB4B4"/><polygon points="1115.4,121.1 1178.5,117.2 1146.9,193.2" fill="#E14434"/><polygon points="1178.5,117.2 1241.5,112.6 1210.0,188.9" fill="#FF9666"/><polygon points="1241.5,112.6 1304.6,107.3 1273.1,183.9" fill="#FBE392"/><polygon points="1304.6,107.3 1367.7,101.2 1336.2,178.3" fill="#88C999"/><polygon points="1367.7,101.2 1430.8,94.5 1399.2,171.9" fill="#43927B"/><polygon points="1430.8,94.5 1493.8,87.0 1462.3,164.8" fill="#5EABD6"/><polygon points="1493.8,87.0 1556.9,78.9 1525.4,157.0" fill="#B8336A"/><polygon points="1556.9,78.9 1620.0,70.0 1588.5,148.4" fill="#DDA0DD"/>
<path d="M880.0,130.0 Q1248.0,210.0 1630.0,120.0" fill="none" stroke="#2F3E46" stroke-width="4" stroke-linecap="round"/><polygon points="880.0,130.0 962.0,145.7 921.0,195.8" fill="#88C999"/><polygon points="962.0,145.7 1044.2,157.2 1003.1,209.4" fill="#43927B"/><polygon points="1044.2,157.2 1126.9,164.4 1085.6,218.8" fill="#5EABD6"/><polygon points="1126.9,164.4 1209.9,167.5 1168.4,224.0" fill="#B8336A"/><polygon points="1209.9,167.5 1293.2,166.4 1251.5,225.0" fill="#DDA0DD"/><polygon points="1293.2,166.4 1376.9,161.1 1335.0,221.8" fill="#FFB4B4"/><polygon points="1376.9,161.1 1460.9,151.6 1418.9,214.4" fill="#E14434"/><polygon points="1460.9,151.6 1545.3,137.9 1503.1,202.8" fill="#FF9666"/><polygon points="1545.3,137.9 1630.0,120.0 1587.6,187.0" fill="#FBE392"/>
<path d="M-20.0,660.0 Q224.0,720.0 480.0,600.0" fill="none" stroke="#2F3E46" stroke-width="4" stroke-linecap="round"/><polygon points="-20.0,660.0 41.2,672.2 10.6,718.1" fill="#5EABD6"/><polygon points="41.2,672.2 102.8,678.8 72.0,727.5" fill="#B8336A"/><polygon points="102.8,678.8 164.7,679.7 133.7,731.2" fill="#DDA0DD"/><polygon points="164.7,679.7 227.0,675.0 195.8,729.3" fill="#FFB4B4"/><polygon points="227.0,675.0 289.7,664.7 258.3,721.8" fill="#E14434"/><polygon points="289.7,664.7 352.8,648.8 321.2,708.7" fill="#FF9666"/><polygon points="352.8,648.8 416.2,627.2 384.5,690.0" fill="#FBE392"/><polygon points="416.2,627.2 480.0,600.0 448.1,665.6" fill="#88C999"/>
<g><path d="M120.0,473.7 C106.0,564.2 134.0,632.1 120.0,700.0" fill="none" stroke="#2F3E46" stroke-width="2" opacity="0.55"/><ellipse cx="120.0" cy="420.0" rx="44.0" ry="53.7" fill="#E14434"/><polygon points="114.0,473.7 126.0,473.7 120.0,482.7" fill="#E14434"/></g>
<g><path d="M1470.0,378.8 C1456.0,483.3 1484.0,561.6 1470.0,640.0" fill="none" stroke="#2F3E46" stroke-width="2" opacity="0.55"/><ellipse cx="1470.0" cy="330.0" rx="40.0" ry="48.8" fill="#FF9666"/><polygon points="1464.0,378.8 1476.0,378.8 1470.0,387.8" fill="#FF9666"/></g>
<g><path d="M1500.0,693.9 C1486.0,776.4 1514.0,838.2 1500.0,900.0" fill="none" stroke="#2F3E46" stroke-width="2" opacity="0.55"/><ellipse cx="1500.0" cy="650.0" rx="36.0" ry="43.9" fill="#B8336A"/><polygon points="1494.0,693.9 1506.0,693.9 1500.0,702.9" fill="#B8336A"/></g>
<g><path d="M95.0,806.4 C81.0,875.8 109.0,927.9 95.0,980.0" fill="none" stroke="#2F3E46" stroke-width="2" opacity="0.55"/><ellipse cx="95.0" cy="760.0" rx="38.0" ry="46.4" fill="#DDA0DD"/><polygon points="89.0,806.4 101.0,806.4 95.0,815.4" fill="#DDA0DD"/></g>
<g><path d="M1400.0,981.2 C1386.0,988.7 1414.0,994.4 1400.0,1000.0" fill="none" stroke="#2F3E46" stroke-width="2" opacity="0.55"/><ellipse cx="1400.0" cy="930.0" rx="42.0" ry="51.2" fill="#FBE392"/><polygon points="1394.0,981.2 1406.0,981.2 1400.0,990.2" fill="#FBE392"/></g>
<g><path d="M330.0,596.6 C316.0,670.0 344.0,725.0 330.0,780.0" fill="none" stroke="#2F3E46" stroke-width="2" opacity="0.55"/><ellipse cx="330.0" cy="560.0" rx="30.0" ry="36.6" fill="#88C999"/><polygon points="324.0,596.6 336.0,596.6 330.0,605.6" fill="#88C999"/></g>
<g><path d="M60.0,336.6 C46.0,426.0 74.0,493.0 60.0,560.0" fill="none" stroke="#2F3E46" stroke-width="2" opacity="0.55"/><ellipse cx="60.0" cy="300.0" rx="30.0" ry="36.6" fill="#3B7DA3"/><polygon points="54.0,336.6 66.0,336.6 60.0,345.6" fill="#3B7DA3"/></g>
<g><path d="M1300.0,576.6 C1286.0,650.0 1314.0,705.0 1300.0,760.0" fill="none" stroke="#2F3E46" stroke-width="2" opacity="0.55"/><ellipse cx="1300.0" cy="540.0" rx="30.0" ry="36.6" fill="#FFB4B4"/><polygon points="1294.0,576.6 1306.0,576.6 1300.0,585.6" fill="#FFB4B4"/></g>
</svg>